<svg width="19" height="30" viewBox="0 0 19 30" fill="none" xmlns="http://www.w3.org/2000/svg">
<g clip-path="url(#clip0_1845_323)">
<path d="M11.1686 30H6.36959C5.568 30 4.91595 29.3472 4.91595 28.5448V17.7086H2.11612C1.31453 17.7086 0.662476 17.0556 0.662476 16.2534V11.61C0.662476 10.8076 1.31453 10.1548 2.11612 10.1548H4.91595V7.82959C4.91595 5.52406 5.63911 3.56255 7.00702 2.15744C8.38109 0.745926 10.3014 0 12.5603 0L16.2203 0.0059509C17.0205 0.00732422 17.6714 0.660095 17.6714 1.46118V5.7724C17.6714 6.57486 17.0194 7.22763 16.2182 7.22763L13.754 7.22855C13.0024 7.22855 12.8111 7.37938 12.7702 7.42561C12.7027 7.50229 12.6224 7.71904 12.6224 8.31757V10.1546H16.033C16.2898 10.1546 16.5385 10.218 16.7523 10.3374C17.2134 10.5954 17.5 11.0831 17.5 11.6103L17.4983 16.2536C17.4983 17.0556 16.8461 17.7084 16.0447 17.7084H12.6224V28.5448C12.6224 29.3472 11.9701 30 11.1686 30ZM6.67276 28.2413H10.8654V16.9212C10.8654 16.3854 11.301 15.9496 11.8359 15.9496H15.7415L15.7431 11.9135H11.8358C11.3008 11.9135 10.8654 11.4777 10.8654 10.9419V8.31757C10.8654 7.63046 10.9352 6.84906 11.4532 6.26175C12.0793 5.55176 13.0658 5.46982 13.7535 5.46982L15.9145 5.4689V1.76422L12.5589 1.75873C8.92867 1.75873 6.67276 4.08508 6.67276 7.82959V10.9419C6.67276 11.4775 6.23744 11.9135 5.70244 11.9135H2.41928V15.9496H5.70244C6.23744 15.9496 6.67276 16.3854 6.67276 16.9212V28.2413ZM16.2168 1.76468H16.2171H16.2168Z" fill="#FF6A28"/>
</g>
<defs>
<clipPath id="clip0_1845_323">
<rect width="18" height="30" fill="white" transform="translate(0.54895)"/>
</clipPath>
</defs>
</svg>
