<svg width="30" height="30" viewBox="0 0 30 30" fill="none" xmlns="http://www.w3.org/2000/svg">
<path d="M21.5545 0H8.01002C3.60183 0 0.015625 3.58434 0.015625 7.99022V21.5279C0.015625 25.9336 3.60183 29.5179 8.01002 29.5179H21.5547C25.9627 29.5179 29.5489 25.9336 29.5489 21.5279V7.99022C29.5489 3.58434 25.9627 0 21.5545 0ZM27.8175 21.5279C27.8175 24.9794 25.008 27.7874 21.5545 27.7874H8.01002C4.55651 27.7874 1.74699 24.9794 1.74699 21.5279V7.99022C1.74699 4.53853 4.55651 1.73046 8.01002 1.73046H21.5547C25.008 1.73046 27.8175 4.53853 27.8175 7.99022V21.5279Z" fill="#FF6A28"/>
<path d="M14.7822 6.6875C10.3294 6.6875 6.70691 10.3081 6.70691 14.7586C6.70691 19.209 10.3294 22.8296 14.7822 22.8296C19.235 22.8296 22.8574 19.209 22.8574 14.7586C22.8574 10.3081 19.235 6.6875 14.7822 6.6875ZM14.7822 21.0992C11.2843 21.0992 8.43828 18.2549 8.43828 14.7586C8.43828 11.2625 11.2843 8.41796 14.7822 8.41796C18.2803 8.41796 21.1261 11.2625 21.1261 14.7586C21.1261 18.2549 18.2803 21.0992 14.7822 21.0992Z" fill="#FF6A28"/>
<path d="M23.0506 3.82129C21.7347 3.82129 20.6644 4.89123 20.6644 6.20619C20.6644 7.52138 21.7347 8.59133 23.0506 8.59133C24.3664 8.59133 25.4369 7.52138 25.4369 6.20619C25.4369 4.891 24.3664 3.82129 23.0506 3.82129ZM23.0506 6.86063C22.6896 6.86063 22.3958 6.56697 22.3958 6.20619C22.3958 5.84519 22.6896 5.55175 23.0506 5.55175C23.4117 5.55175 23.7056 5.84519 23.7056 6.20619C23.7056 6.56697 23.4117 6.86063 23.0506 6.86063Z" fill="#FF6A28"/>
</svg>
