<svg width="178" height="49" viewBox="0 0 178 49" fill="none" xmlns="http://www.w3.org/2000/svg">
<path d="M1.33831 37.1268V35.7033H0V37.1268H1.33831ZM2.67661 37.1268V38.5502H4.01492V37.1268H2.67661ZM2.67661 24.3443H4.01492V22.9209H2.67661V24.3443ZM1.33831 24.3443H0V25.7677H1.33831V24.3443ZM1.33831 19.647V18.2235H0V19.647H1.33831ZM19.2984 22.2661L18.3824 23.3038L18.3875 23.309L18.3927 23.3141L19.2984 22.2661ZM19.2984 39.205L20.209 40.2481L20.2094 40.2477L19.2984 39.205ZM1.33831 41.7957H0V43.2191H1.33831V41.7957ZM13.0886 36.6143L12.1157 35.637L13.0886 36.6143ZM10.1711 24.3158V22.8924H8.83281V24.3158H10.1711ZM10.1711 37.1268H8.83281V38.5502H10.1711V37.1268ZM1.33831 38.5502H2.67661V35.7033H1.33831V38.5502ZM4.01492 37.1268V24.3443H1.33831V37.1268H4.01492ZM2.67661 22.9209H1.33831V25.7677H2.67661V22.9209ZM2.67661 24.3443V19.647H0V24.3443H2.67661ZM1.33831 21.0704H12.2053V18.2235H1.33831V21.0704ZM12.2053 21.0704C14.9315 21.0704 16.9384 21.862 18.3824 23.3038L20.2144 21.2283C18.1609 19.1779 15.4392 18.2235 12.2053 18.2235V21.0704ZM18.3927 23.3141C19.7656 24.6562 20.6099 26.9995 20.6099 30.7213H23.2865C23.2865 26.6237 22.3643 23.3301 20.2041 21.2181L18.3927 23.3141ZM20.6099 30.7213C20.6099 34.4414 19.7662 36.7994 18.3873 38.1623L20.2094 40.2477C22.3637 38.1184 23.2865 34.8207 23.2865 30.7213H20.6099ZM18.3877 38.1619C16.9441 39.5877 14.9353 40.3722 12.2053 40.3722V43.2191C15.4353 43.2191 18.1552 42.2766 20.209 40.2481L18.3877 38.1619ZM12.2053 40.3722H1.33831V43.2191H12.2053V40.3722ZM2.67661 41.7957V37.1268H0V41.7957H2.67661ZM11.7236 38.5502C12.5567 38.5502 13.4223 38.3117 14.0616 37.5917L12.1157 35.637C12.1232 35.6285 12.1202 35.6392 12.0745 35.6564C12.0214 35.6763 11.9125 35.7033 11.7236 35.7033V38.5502ZM14.0616 37.5917C14.6982 36.8748 14.882 35.9161 14.882 35.0201H12.2053C12.2053 35.5665 12.0858 35.6706 12.1157 35.637L14.0616 37.5917ZM14.882 35.0201V26.4225H12.2053V35.0201H14.882ZM14.882 26.4225C14.882 25.5293 14.6914 24.594 14.0741 23.8793C13.4371 23.1421 12.567 22.8924 11.7236 22.8924V25.7393C11.9091 25.7393 12.014 25.7665 12.0635 25.7856C12.0871 25.7947 12.0981 25.8019 12.101 25.804C12.1019 25.8045 12.1024 25.805 12.1028 25.8052C12.1029 25.8053 12.103 25.8055 12.103 25.8055C12.1031 25.8055 12.1032 25.8055 12.1032 25.8055C12.1032 25.8055 12.1032 25.8055 12.1031 25.8055L12.103 25.8055C12.103 25.8055 12.103 25.8055 12.1032 25.8056C12.1034 25.8059 12.1045 25.8072 12.1064 25.8101C12.1085 25.813 12.1116 25.8181 12.1157 25.826C12.1239 25.8418 12.1368 25.8708 12.1503 25.9177C12.1782 26.0148 12.2053 26.1759 12.2053 26.4225H14.882ZM11.7236 22.8924H10.1711V25.7393H11.7236V22.8924ZM8.83281 24.3158V37.1268H11.5094V24.3158H8.83281ZM10.1711 38.5502H11.7236V35.7033H10.1711V38.5502ZM25.2594 41.7957H23.9211V43.2191H25.2594V41.7957ZM25.2594 37.1268V35.7033H23.9211V37.1268H25.2594ZM26.5977 37.1268V38.5502H27.9361V37.1268H26.5977ZM26.5977 24.3158H27.9361V22.8924H26.5977V24.3158ZM25.2594 24.3158H23.9211V25.7393H25.2594V24.3158ZM25.2594 19.647V18.2235H23.9211V19.647H25.2594ZM43.3266 19.647H44.6649V18.2235H43.3266V19.647ZM43.3266 28.2445V29.668H44.6649V28.2445H43.3266ZM37.331 28.2445H35.9926V29.668H37.331V28.2445ZM37.331 24.3158H38.6693V22.8924H37.331V24.3158ZM34.0923 24.3158V22.8924H32.754V24.3158H34.0923ZM34.0923 28.8139H32.754V30.2373H34.0923V28.8139ZM36.4477 28.8139H37.786V27.3905H36.4477V28.8139ZM36.4477 32.0593V33.4828H37.786V32.0593H36.4477ZM34.0923 32.0593V30.6359H32.754V32.0593H34.0923ZM34.0923 37.1268H32.754V38.5502H34.0923V37.1268ZM37.331 37.1268V38.5502H38.6693V37.1268H37.331ZM37.331 32.6287V31.2053H35.9926V32.6287H37.331ZM43.3266 32.6287H44.6649V31.2053H43.3266V32.6287ZM43.3266 41.7957V43.2191H44.6649V41.7957H43.3266ZM26.5977 41.7957V37.1268H23.9211V41.7957H26.5977ZM25.2594 38.5502H26.5977V35.7033H25.2594V38.5502ZM27.9361 37.1268V24.3158H25.2594V37.1268H27.9361ZM26.5977 22.8924H25.2594V25.7393H26.5977V22.8924ZM26.5977 24.3158V19.647H23.9211V24.3158H26.5977ZM25.2594 21.0704H43.3266V18.2235H25.2594V21.0704ZM41.9883 19.647V28.2445H44.6649V19.647H41.9883ZM43.3266 26.8211H37.331V29.668H43.3266V26.8211ZM38.6693 28.2445V24.3158H35.9926V28.2445H38.6693ZM37.331 22.8924H34.0923V25.7393H37.331V22.8924ZM32.754 24.3158V28.8139H35.4306V24.3158H32.754ZM34.0923 30.2373H36.4477V27.3905H34.0923V30.2373ZM35.1094 28.8139V32.0593H37.786V28.8139H35.1094ZM36.4477 30.6359H34.0923V33.4828H36.4477V30.6359ZM32.754 32.0593V37.1268H35.4306V32.0593H32.754ZM34.0923 38.5502H37.331V35.7033H34.0923V38.5502ZM38.6693 37.1268V32.6287H35.9926V37.1268H38.6693ZM37.331 34.0521H43.3266V31.2053H37.331V34.0521ZM41.9883 32.6287V41.7957H44.6649V32.6287H41.9883ZM43.3266 40.3722H25.2594V43.2191H43.3266V40.3722ZM50.1758 41.7387L49.9133 43.1345L49.9221 43.1364L49.931 43.1382L50.1758 41.7387ZM46.6694 40.6569H45.3311V41.5718L46.1136 41.9518L46.6694 40.6569ZM46.6694 35.0201V33.5966H45.3311V35.0201H46.6694ZM52.558 35.0201H53.8963V33.5966H52.558V35.0201ZM52.9327 36.3012L51.9863 37.3077L52.9327 36.3012ZM55.4755 36.4435L56.2373 37.6139L56.2454 37.6079L56.2533 37.6018L55.4755 36.4435ZM55.5023 34.8493L54.5945 35.8952L54.6157 35.9161L54.6378 35.9359L55.5023 34.8493ZM54.2978 34.166L54.7677 32.8332L54.7531 32.8274L54.7386 32.822L54.2978 34.166ZM51.9959 33.312L51.5223 34.6433L51.5386 34.6499L51.5551 34.656L51.9959 33.312ZM47.7133 30.4936L46.6896 31.4105L46.694 31.416L46.6984 31.4215L47.7133 30.4936ZM48.4895 21.0135L49.3206 22.1292L49.3222 22.1277L48.4895 21.0135ZM59.7848 19.7608L59.4764 21.146L59.4863 21.1485L59.4963 21.1508L59.7848 19.7608ZM63.1038 21.0704H64.4421V20.2761L63.8066 19.859L63.1038 21.0704ZM63.1038 26.1663V27.5897H64.4421V26.1663H63.1038ZM57.7506 26.1663H56.4123V27.5897H57.7506V26.1663ZM54.9402 24.9706L55.6145 26.2002L55.6281 26.1917L55.6416 26.1829L54.9402 24.9706ZM54.9937 26.4795L54.2158 27.6378L54.2333 27.6511L54.2513 27.6638L54.9937 26.4795ZM56.2785 27.0773L56.7147 25.7317L56.7082 25.7292L56.7016 25.7269L56.2785 27.0773ZM58.6071 27.9314L58.1708 29.2771L58.1767 29.2792L58.6071 27.9314ZM62.7291 30.6074L61.6981 31.5149L61.706 31.5253L61.7142 31.5354L62.7291 30.6074ZM61.7388 40.3437L60.9318 39.2081L60.9258 39.213L61.7388 40.3437ZM55.0472 40.7708C53.4084 40.7708 51.867 40.6255 50.4206 40.3393L49.931 43.1382C51.5537 43.4592 53.2599 43.6177 55.0472 43.6177V40.7708ZM50.4382 40.3429C48.9618 40.0289 47.909 39.694 47.2252 39.362L46.1136 41.9518C47.0715 42.4169 48.3562 42.8033 49.9133 43.1345L50.4382 40.3429ZM48.0077 40.6569V35.0201H45.3311V40.6569H48.0077ZM46.6694 36.4435H52.558V33.5966H46.6694V36.4435ZM51.2197 35.0201C51.2197 35.7786 51.375 36.6575 51.9863 37.3077L53.879 35.2947C53.9341 35.3532 53.9398 35.3937 53.9296 35.3588C53.9174 35.3175 53.8963 35.2133 53.8963 35.0201H51.2197ZM51.9863 37.3077C52.6315 37.9939 53.5592 38.1232 54.2978 38.1232V35.2763C54.0436 35.2763 53.892 35.2498 53.8156 35.2274C53.7394 35.2052 53.7937 35.2039 53.879 35.2947L51.9863 37.3077ZM54.2978 38.1232C54.9041 38.1232 55.6515 38.0452 56.2373 37.6139L54.7137 35.2732C54.7949 35.2134 54.827 35.2219 54.7389 35.2411C54.657 35.2589 54.5156 35.2763 54.2978 35.2763V38.1232ZM56.2533 37.6018C56.8955 37.114 57.1885 36.3825 57.1885 35.6179H54.5119C54.5119 35.6222 54.5117 35.5631 54.5513 35.4759C54.5931 35.3837 54.6526 35.3194 54.6976 35.2852L56.2533 37.6018ZM57.1885 35.6179C57.1885 34.8658 56.8772 34.222 56.3667 33.7626L54.6378 35.9359C54.6298 35.9287 54.5913 35.8906 54.5574 35.8155C54.5224 35.7381 54.5119 35.6651 54.5119 35.6179H57.1885ZM56.41 33.8033C55.981 33.3822 55.3782 33.0767 54.7677 32.8332L53.8278 35.4989C54.0757 35.5977 54.2623 35.687 54.3974 35.7636C54.4641 35.8015 54.5128 35.8332 54.5469 35.8577C54.5815 35.8825 54.595 35.8958 54.5945 35.8952L56.41 33.8033ZM54.7386 32.822L52.4367 31.968L51.5551 34.656L53.8569 35.51L54.7386 32.822ZM52.4695 31.9806C50.5887 31.2237 49.3958 30.3916 48.7282 29.5656L46.6984 31.4215C47.7795 32.7591 49.4417 33.806 51.5223 34.6433L52.4695 31.9806ZM48.737 29.5766C48.1383 28.8205 47.7669 27.7177 47.7669 26.1094H45.0902C45.0902 28.183 45.5752 30.003 46.6896 31.4105L48.737 29.5766ZM47.7669 26.1094C47.7669 24.2073 48.3325 22.9618 49.3206 22.1292L47.6585 19.8977C45.8986 21.3806 45.0902 23.5324 45.0902 26.1094H47.7669ZM49.3222 22.1277C50.3499 21.2589 52.2768 20.6718 55.422 20.6718V17.825C52.1075 17.825 49.4128 18.4145 47.6568 19.8992L49.3222 22.1277ZM55.422 20.6718C56.8821 20.6718 58.232 20.8325 59.4764 21.146L60.0933 18.3757C58.6253 18.0059 57.0666 17.825 55.422 17.825V20.6718ZM59.4963 21.1508C60.7811 21.4525 61.732 21.8427 62.401 22.2818L63.8066 19.859C62.7983 19.1973 61.5365 18.7145 60.0733 18.3708L59.4963 21.1508ZM61.7655 21.0704V26.1663H64.4421V21.0704H61.7655ZM63.1038 24.7429H57.7506V27.5897H63.1038V24.7429ZM59.0889 26.1663C59.0889 25.3816 58.846 24.5656 58.1759 23.9907C57.5606 23.463 56.7891 23.3194 56.0911 23.3194V26.1663C56.2821 26.1663 56.4026 26.1873 56.4697 26.2064C56.5341 26.2249 56.5293 26.2357 56.4956 26.2067C56.4559 26.1727 56.4249 26.1255 56.41 26.0873C56.3986 26.0578 56.4123 26.0736 56.4123 26.1663H59.0889ZM56.0911 23.3194C55.5059 23.3194 54.803 23.389 54.2388 23.7583L55.6416 26.1829C55.5709 26.2291 55.5523 26.2179 55.6467 26.1993C55.7343 26.1819 55.8776 26.1663 56.0911 26.1663V23.3194ZM54.2658 23.741C53.4949 24.2194 53.2807 25.0535 53.2807 25.7108H55.9573C55.9573 25.6723 55.964 25.7376 55.9144 25.8518C55.8566 25.9848 55.7521 26.1148 55.6145 26.2002L54.2658 23.741ZM53.2807 25.7108C53.2807 26.4997 53.6193 27.1846 54.2158 27.6378L55.7715 25.3211C55.796 25.3398 55.8536 25.3931 55.9007 25.4897C55.9481 25.587 55.9573 25.6713 55.9573 25.7108H53.2807ZM54.2513 27.6638C54.6714 27.9618 55.2375 28.2087 55.8552 28.4277L56.7016 25.7269C56.1416 25.5284 55.8512 25.3767 55.7361 25.2951L54.2513 27.6638ZM55.8422 28.4229L58.1708 29.277L59.0434 26.5857L56.7147 25.7317L55.8422 28.4229ZM58.1767 29.2792C59.9403 29.9162 61.0586 30.6932 61.6981 31.5149L63.7601 29.6999C62.6865 28.3201 61.0569 27.313 59.0375 26.5835L58.1767 29.2792ZM61.7142 31.5354C62.3337 32.3018 62.7023 33.3695 62.7023 34.8777H65.379C65.379 32.8559 64.8731 31.0767 63.7439 29.6795L61.7142 31.5354ZM62.7023 34.8777C62.7023 36.9316 62.0697 38.2934 60.9318 39.2082L62.5457 41.4793C64.4769 39.9268 65.379 37.6446 65.379 34.8777H62.7023ZM60.9258 39.213C59.7387 40.1786 57.8477 40.7708 55.0472 40.7708V43.6177C58.1352 43.6177 60.7053 42.9763 62.5517 41.4745L60.9258 39.213ZM97.8094 34.6785V36.1019H99.1477V34.6785H97.8094ZM96.4711 34.6785V33.255H95.1328V34.6785H96.4711ZM96.4711 40.3722L97.1322 41.6098L97.8094 41.2006V40.3722H96.4711ZM93.0182 41.6533L93.314 43.0417L93.3194 43.0403L93.3247 43.0389L93.0182 41.6533ZM80.3043 39.4043L79.3909 40.4446L79.3963 40.4494L80.3043 39.4043ZM80.2776 21.9814L79.3796 20.9263L79.3749 20.9308L80.2776 21.9814ZM93.1253 19.8178L92.8121 21.2016L93.1253 19.8178ZM96.4711 21.0989H97.8094V20.2896L97.1556 19.8757L96.4711 21.0989ZM96.4711 27.9029V29.3263H97.8094V27.9029H96.4711ZM89.7795 27.9029H88.4412V29.3263H89.7795V27.9029ZM89.2977 24.8567L88.3007 25.8059L88.3255 25.8354L88.3516 25.8633L89.2977 24.8567ZM86.3267 24.8567L85.3551 23.8778L85.3538 23.8794L86.3267 24.8567ZM86.3267 36.6143L85.3297 37.5635L85.3544 37.593L85.3805 37.6209L86.3267 36.6143ZM89.2977 36.6143L88.3261 35.6354L88.3248 35.637L89.2977 36.6143ZM89.7795 34.6785H91.1178V33.255H89.7795V34.6785ZM88.3342 34.6785H86.9959V36.1019H88.3342V34.6785ZM88.3342 30.4366V29.0132H86.9959V30.4366H88.3342ZM97.8094 30.4366H99.1477V29.0132H97.8094V30.4366ZM97.8094 33.255H96.4711V36.1019H97.8094V33.255ZM95.1328 34.6785V40.3722H97.8094V34.6785H95.1328ZM95.8099 39.1346C95.1883 39.5106 94.1805 39.9002 92.7118 40.2677L93.3247 43.0389C94.8899 42.6473 96.1847 42.1828 97.1322 41.6098L95.8099 39.1346ZM92.7231 40.265C91.3333 40.5993 89.8097 40.7708 88.1468 40.7708V43.6177C89.9816 43.6177 91.706 43.4286 93.314 43.0417L92.7231 40.265ZM88.1468 40.7708C85.0446 40.7708 82.7909 39.9107 81.213 38.3591L79.3963 40.4494C81.6012 42.6178 84.5762 43.6177 88.1468 43.6177V40.7708ZM81.2184 38.364C79.6954 36.8513 78.8054 34.4057 78.8054 30.7213H76.1288C76.1288 34.8562 77.1312 38.1994 79.3909 40.4446L81.2184 38.364ZM78.8054 30.7213C78.8054 26.922 79.6954 24.4763 81.1809 23.032L79.3749 20.9308C77.1131 23.1305 76.1288 26.5114 76.1288 30.7213H78.8054ZM81.1762 23.0364C82.7427 21.5272 85.072 20.6718 88.3609 20.6718V17.825C84.6558 17.825 81.5958 18.7915 79.3796 20.9263L81.1762 23.0364ZM88.3609 20.6718C89.9622 20.6718 91.4444 20.8511 92.8121 21.2016L93.4391 18.434C91.8445 18.0253 90.1502 17.825 88.3609 17.825V20.6718ZM92.8121 21.2016C94.2448 21.5687 95.2077 21.9555 95.7865 22.322L97.1556 19.8757C96.2362 19.2933 94.9688 18.826 93.4391 18.434L92.8121 21.2016ZM95.1328 21.0989V27.9029H97.8094V21.0989H95.1328ZM96.4711 26.4795H89.7795V29.3263H96.4711V26.4795ZM91.1178 27.9029V26.5649H88.4412V27.9029H91.1178ZM91.1178 26.5649C91.1178 25.6233 90.9378 24.5876 90.2446 23.8502L88.3516 25.8633C88.3235 25.8334 88.3462 25.8386 88.3777 25.949C88.4098 26.0646 88.4412 26.2609 88.4412 26.5649H91.1178ZM90.2955 23.9076C89.635 23.1226 88.6962 22.8924 87.8256 22.8924V25.7393C88.3114 25.7393 88.3542 25.8697 88.3007 25.8059L90.2955 23.9076ZM87.8256 22.8924C86.9477 22.8924 86.0249 23.1258 85.3551 23.8778L87.2983 25.8357C87.2709 25.8665 87.3478 25.7393 87.8256 25.7393V22.8924ZM85.3538 23.8794C84.6987 24.6174 84.5334 25.6398 84.5334 26.5649H87.21C87.21 26.2553 87.2408 26.0514 87.2736 25.928C87.305 25.808 87.3298 25.8006 87.2997 25.8341L85.3538 23.8794ZM84.5334 26.5649V34.8777H87.21V26.5649H84.5334ZM84.5334 34.8777C84.5334 35.813 84.7027 36.8182 85.3297 37.5635L87.3244 35.6652C87.3385 35.6821 87.3084 35.6565 87.2749 35.5276C87.2401 35.3955 87.21 35.1865 87.21 34.8777H84.5334ZM85.3805 37.6209C86.053 38.3363 86.9657 38.5502 87.8256 38.5502V35.7033C87.3298 35.7033 87.2428 35.5757 87.2736 35.6078L85.3805 37.6209ZM87.8256 38.5502C88.6774 38.5502 89.6069 38.3398 90.2707 37.5917L88.3248 35.637C88.3509 35.6082 88.3556 35.6218 88.286 35.6458C88.2097 35.6724 88.0652 35.7033 87.8256 35.7033V38.5502ZM90.2694 37.5933C90.9338 36.8475 91.1178 35.8291 91.1178 34.8777H88.4412C88.4412 35.1809 88.4105 35.3824 88.3757 35.5069C88.3429 35.6265 88.3134 35.6497 88.3261 35.6354L90.2694 37.5933ZM91.1178 34.8777V34.6785H88.4412V34.8777H91.1178ZM89.7795 33.255H88.3342V36.1019H89.7795V33.255ZM89.6725 34.6785V30.4366H86.9959V34.6785H89.6725ZM88.3342 31.8601H97.8094V29.0132H88.3342V31.8601ZM96.4711 30.4366V34.6785H99.1477V30.4366H96.4711ZM116.391 19.647V18.2235H115.053V19.647H116.391ZM125.17 19.647H126.509V18.2235H125.17V19.647ZM125.17 24.3158V25.7393H126.509V24.3158H125.17ZM123.832 24.3158V22.8924H122.494V24.3158H123.832ZM123.832 41.7957V43.2191H125.17V41.7957H123.832ZM116.311 41.7957L115.189 42.5711L115.585 43.2191H116.311V41.7957ZM108.468 28.9562L109.591 28.1807L107.13 24.1524V28.9562H108.468ZM108.468 37.1268H107.13V38.5502H108.468V37.1268ZM109.753 37.1268H111.091V35.7033H109.753V37.1268ZM109.753 41.7957V43.2191H111.091V41.7957H109.753ZM100.974 41.7957H99.6355V43.2191H100.974V41.7957ZM100.974 37.1268V35.7033H99.6355V37.1268H100.974ZM102.312 37.1268V38.5502H103.65V37.1268H102.312ZM102.312 24.3158H103.65V22.8924H102.312V24.3158ZM100.974 24.3158H99.6355V25.7393H100.974V24.3158ZM100.974 19.647V18.2235H99.6355V19.647H100.974ZM110.636 19.647L111.756 18.8663L111.359 18.2235H110.636V19.647ZM117.676 31.0629L116.557 31.8436L119.014 35.8287V31.0629H117.676ZM117.676 24.3158H119.014V22.8924H117.676V24.3158ZM116.391 24.3158H115.053V25.7393H116.391V24.3158ZM116.391 21.0704H125.17V18.2235H116.391V21.0704ZM123.832 19.647V24.3158H126.509V19.647H123.832ZM125.17 22.8924H123.832V25.7393H125.17V22.8924ZM122.494 24.3158V41.7957H125.17V24.3158H122.494ZM123.832 40.3722H116.311V43.2191H123.832V40.3722ZM117.434 41.0202L109.591 28.1807L107.346 29.7317L115.189 42.5711L117.434 41.0202ZM107.13 28.9562V37.1268H109.807V28.9562H107.13ZM108.468 38.5502H109.753V35.7033H108.468V38.5502ZM108.415 37.1268V41.7957H111.091V37.1268H108.415ZM109.753 40.3722H100.974V43.2191H109.753V40.3722ZM102.312 41.7957V37.1268H99.6355V41.7957H102.312ZM100.974 38.5502H102.312V35.7033H100.974V38.5502ZM103.65 37.1268V24.3158H100.974V37.1268H103.65ZM102.312 22.8924H100.974V25.7393H102.312V22.8924ZM102.312 24.3158V19.647H99.6355V24.3158H102.312ZM100.974 21.0704H110.636V18.2235H100.974V21.0704ZM109.518 20.4276L116.557 31.8436L118.795 30.2822L111.756 18.8663L109.518 20.4276ZM119.014 31.0629V24.3158H116.338V31.0629H119.014ZM117.676 22.8924H116.391V25.7393H117.676V22.8924ZM117.729 24.3158V19.647H115.053V24.3158H117.729Z" fill="#FF6A28"/>
<path d="M132.963 43.9934H134.023V32.4636H132.963V28.2616H139.564V30.0039C139.965 29.4573 140.479 28.9705 141.106 28.5434C141.748 28.1164 142.479 27.9029 143.298 27.9029C144.936 27.9029 146.164 28.552 146.983 29.8502C147.819 31.1483 148.236 32.9931 148.236 35.3845C148.236 37.7759 147.819 39.6206 146.983 40.9188C146.164 42.217 144.936 42.8661 143.298 42.8661C142.479 42.8661 141.748 42.6526 141.106 42.2255C140.479 41.7985 139.965 41.3117 139.564 40.7651V43.9934H141.226V48.1954H132.963V43.9934ZM140.961 38.3054C141.427 38.3054 141.772 38.1773 141.997 37.9211C142.238 37.6477 142.358 37.2293 142.358 36.6656V34.1034C142.358 33.5397 142.238 33.1298 141.997 32.8735C141.772 32.6002 141.427 32.4636 140.961 32.4636C140.495 32.4636 140.142 32.6002 139.901 32.8735C139.676 33.1298 139.564 33.5397 139.564 34.1034V36.6656C139.564 37.2293 139.676 37.6477 139.901 37.9211C140.142 38.1773 140.495 38.3054 140.961 38.3054ZM160.165 27.9029C160.486 27.9029 160.791 27.9371 161.08 28.0054C161.37 28.0737 161.61 28.1591 161.803 28.2616V33.1554C161.145 32.865 160.438 32.7198 159.683 32.7198C158.672 32.7198 157.893 33.0016 157.347 33.5653C156.801 34.129 156.528 34.966 156.528 36.0763V38.3054H158.696V42.5074H149.927V38.3054H150.987V32.4636H149.927V28.2616H156.528V30.132C156.977 29.4146 157.491 28.868 158.069 28.4922C158.647 28.0993 159.346 27.9029 160.165 27.9029ZM170.725 42.8661C168.445 42.8661 166.662 42.2341 165.377 40.9701C164.092 39.689 163.45 37.8271 163.45 35.3845C163.45 32.9419 164.092 31.0885 165.377 29.8245C166.662 28.5434 168.445 27.9029 170.725 27.9029C173.038 27.9029 174.828 28.552 176.097 29.8502C177.366 31.1313 178 32.976 178 35.3845C178 37.8271 177.358 39.689 176.073 40.9701C174.788 42.2341 173.005 42.8661 170.725 42.8661ZM170.725 38.3054C171.191 38.3054 171.536 38.1773 171.761 37.9211C172.002 37.6477 172.122 37.2293 172.122 36.6656V34.1034C172.122 33.5397 172.002 33.1298 171.761 32.8735C171.536 32.6002 171.191 32.4636 170.725 32.4636C170.259 32.4636 169.906 32.6002 169.665 32.8735C169.44 33.1298 169.328 33.5397 169.328 34.1034V36.6656C169.328 37.2293 169.44 37.6477 169.665 37.9211C169.906 38.1773 170.259 38.3054 170.725 38.3054Z" fill="#121212" fill-opacity="0.83"/>
<path d="M74.2759 18.0242H67.8521V38.5217H74.2759V18.0242Z" fill="#121212" fill-opacity="0.83"/>
<path d="M74.9183 39.205H67.2097V40.5715H74.9183V39.205Z" fill="#121212" fill-opacity="0.83"/>
<path d="M76.5243 41.2548H65.6036V43.6461H76.5243V41.2548Z" fill="#121212" fill-opacity="0.83"/>
<path d="M74.9183 15.9745H67.2097V17.341H74.9183V15.9745Z" fill="#121212" fill-opacity="0.83"/>
<path d="M76.5243 12.8998H65.6036V15.2912H76.5243V12.8998Z" fill="#121212" fill-opacity="0.83"/>
<path d="M76.9605 4.08298C76.7223 3.90191 76.4138 3.8251 76.0913 3.83375C76.0304 3.83524 75.9434 3.85228 75.8839 3.86918C75.8819 3.86986 75.8798 3.86972 75.8778 3.8704C75.6236 3.96276 75.4523 3.97561 75.4134 3.89393C75.3746 3.81212 75.3653 3.67202 75.5446 3.68392C75.5473 3.68406 75.5493 3.68162 75.5526 3.68081C75.5694 3.67527 75.9153 3.75438 76.015 3.49095C76.0726 3.33909 75.916 3.18331 75.7233 3.18304C75.3311 3.18264 75.1177 3.30759 74.9745 3.56911C74.9464 3.24971 74.8688 2.98223 74.7256 2.79413C74.2913 2.2228 73.3096 1.86675 72.1921 1.72571L72.1935 1.72422C71.8569 1.65647 72.0195 1.45687 72.1908 1.40616C72.6157 1.30785 72.8894 1.15545 72.8894 0.983987C72.8894 0.936523 72.88 0.764244 72.88 0.720701C72.88 0.424149 72.0643 0.183716 71.0586 0.183716C70.0529 0.183716 69.2372 0.424149 69.2372 0.720701C69.2372 0.768165 69.2472 0.940444 69.2472 0.983987C69.2472 1.15451 69.5175 1.3061 69.9378 1.40454L69.9351 1.40535C70.1077 1.45512 70.2723 1.65606 69.9351 1.72422L69.9358 1.72571C68.8183 1.86675 67.8366 2.2228 67.4023 2.79413C67.2591 2.98237 67.1822 3.24971 67.1534 3.56884C67.0102 3.30745 66.7968 3.18264 66.4046 3.18304C66.2121 3.18331 66.0559 3.33909 66.1132 3.49095C66.2127 3.75438 66.5592 3.67527 66.5759 3.68081C66.5786 3.68162 66.5806 3.68406 66.5833 3.68392C66.7626 3.67202 66.7533 3.81212 66.7145 3.89393C66.6763 3.97561 66.5043 3.96276 66.2504 3.8704C66.2481 3.86986 66.2466 3.86986 66.2443 3.86918C66.1843 3.85228 66.0975 3.83524 66.0367 3.83375C65.7144 3.82523 65.4054 3.90191 65.1672 4.08298C64.8918 4.29231 64.7397 4.61279 64.7387 4.98534C64.7345 6.45325 65.9512 7.34155 66.9286 8.05569C67.4893 8.46514 68.0186 8.85203 68.1826 9.24468C68.2435 9.38952 68.3432 9.5935 68.2823 9.62254C68.1946 9.65841 68.0508 9.53898 68.0006 9.4703C67.9992 9.4688 67.9972 9.46824 67.9959 9.46703C67.9959 9.46703 67.7483 9.2592 67.6486 9.41486C67.5509 9.56652 67.749 9.75036 67.749 9.75036C67.8948 9.89883 68.1498 10.1192 68.5024 10.115C68.5834 10.1142 68.6523 10.0849 68.7059 10.0446C68.7621 10.0019 68.8022 9.94423 68.8303 9.87719C68.8772 9.98736 68.9146 10.0742 68.9334 10.1107C69.3161 10.8648 69.9652 11.5068 71.0512 11.5068C72.0737 11.5068 72.6518 10.9091 73.0667 10.2259C73.1102 10.1552 73.1912 10.0057 73.2809 9.8305C73.307 9.91868 73.3531 9.99227 73.422 10.0446C73.4756 10.0849 73.5445 10.1142 73.6255 10.115C73.9781 10.1191 74.2331 9.89868 74.3789 9.75036C74.3789 9.75036 74.577 9.56652 74.48 9.41486C74.3796 9.2592 74.132 9.46703 74.132 9.46703C74.13 9.46838 74.1287 9.46895 74.128 9.4703C74.0771 9.53898 73.9339 9.65841 73.8456 9.62254C73.7847 9.5935 73.8851 9.38952 73.9453 9.24468C74.1086 8.85203 74.6386 8.46514 75.1993 8.05569C76.1769 7.34155 77.3935 6.45325 77.3895 4.98534C77.3881 4.61279 77.2362 4.29244 76.9605 4.08298ZM67.3816 7.84068C66.4314 7.1449 65.3537 6.35624 65.357 5.09988C65.3577 4.8516 65.4543 4.64714 65.6361 4.50867C65.8976 4.30935 66.3019 4.26702 66.6656 4.40103C66.8771 4.47892 67.0403 4.46377 67.1501 4.35586C67.1548 4.35154 67.1588 4.34518 67.1628 4.34018C67.2866 5.67743 67.8808 7.4404 68.3131 8.58521C68.0581 8.33788 67.7342 8.09896 67.3816 7.84068ZM70.0395 0.646326C69.9538 0.678781 69.9077 0.700687 69.812 0.807246C69.8113 0.807922 69.8113 0.808733 69.8106 0.809409C69.7879 0.782094 69.7752 0.752614 69.7752 0.720701C69.7752 0.484325 70.4457 0.376684 71.068 0.376684C71.6909 0.376684 72.3614 0.484325 72.3614 0.720701C72.3614 0.740714 72.3547 0.759781 72.3454 0.777902C72.2985 0.739092 72.1333 0.66066 72.0911 0.644027C71.9278 0.579254 71.5845 0.508395 71.068 0.508395C70.5454 0.50826 70.2028 0.584663 70.0395 0.646326ZM74.747 7.84068C74.3937 8.09882 74.0705 8.33788 73.8148 8.58521C74.2478 7.4404 74.8413 5.6773 74.9651 4.34004C74.9691 4.34505 74.9731 4.3514 74.9778 4.35586C75.0876 4.46377 75.2508 4.47892 75.463 4.40103C75.8263 4.26702 76.2305 4.30935 76.4921 4.50867C76.6741 4.64714 76.7705 4.8516 76.7712 5.09988C76.7745 6.35639 75.6972 7.14504 74.747 7.84068Z" fill="#121212" fill-opacity="0.83"/>
<path d="M129.268 43.9308C130.37 43.9308 131.264 42.9749 131.264 41.7957C131.264 40.6165 130.37 39.6605 129.268 39.6605C128.166 39.6605 127.273 40.6165 127.273 41.7957C127.273 42.9749 128.166 43.9308 129.268 43.9308Z" fill="#121212" fill-opacity="0.83"/>
</svg>
