<svg width="31" height="22" viewBox="0 0 31 22" fill="none" xmlns="http://www.w3.org/2000/svg">
<path d="M29.7679 0.382026C29.4738 0.0384337 28.9863 -0.0889855 28.5528 0.0639175L1.01958 9.60915C0.469519 9.80094 0.0834207 10.266 0.0117437 10.8229C-0.0592473 11.3772 0.195402 11.915 0.673099 12.2245L4.6087 14.8019C4.98999 15.0517 5.48028 15.0785 5.88859 14.8718L14.4257 10.5529L7.77212 15.3191C7.45976 15.5429 7.27313 15.8999 7.27313 16.2738V20.6887C7.27313 21.1441 7.5335 21.5613 7.95257 21.7779C8.37233 21.9945 8.87934 21.973 9.27803 21.7208L12.2681 19.8181L15.2085 21.7414C15.4661 21.9108 15.7729 22 16.0826 22C16.1872 22 16.2923 21.9897 16.3958 21.969C16.8087 21.8864 17.174 21.6417 17.3982 21.2977L29.8551 1.59207C30.0976 1.21267 30.0628 0.727156 29.7679 0.382026ZM16.0168 20.2271L12.9718 18.2352C12.76 18.0964 12.5159 18.0269 12.272 18.0269C12.0334 18.0269 11.7945 18.0935 11.5854 18.2266L9.03277 19.851V16.523L20.7816 8.10692C21.3063 7.73103 21.4384 7.04693 21.0887 6.51572C20.7388 5.98451 20.0383 5.80503 19.4592 6.09809L5.34357 13.2391L2.01481 11.0591L27.3691 2.26937L16.0168 20.2271Z" fill="#FF6A28"/>
</svg>
